<svg id="Capa_1" enable-background="new 0 0 511.997 511.997" height="512" viewBox="0 0 511.997 511.997" width="512" xmlns="http://www.w3.org/2000/svg"><g><g><path d="m187.278 180.1c-2.973 2.884-3.046 7.632-.162 10.605 1.471 1.517 3.426 2.278 5.384 2.278 1.881 0 3.764-.703 5.221-2.116 3.691-3.582 9.702-3.582 13.396 0 2.973 2.883 7.723 2.812 10.605-.163 2.884-2.973 2.811-7.722-.163-10.605-9.45-9.166-24.83-9.165-34.281.001z"/><path d="m295.425 192.984c1.881 0 3.764-.703 5.221-2.116 3.686-3.575 9.701-3.568 13.407.011 2.98 2.877 7.729 2.795 10.605-.185 2.877-2.979 2.794-7.728-.186-10.605-9.467-9.142-24.839-9.135-34.271.011-2.974 2.884-3.046 7.632-.162 10.605 1.471 1.517 3.428 2.279 5.386 2.279z"/><path d="m255.881 239.29c-4.518 0-8.763-1.761-11.951-4.96-2.925-2.934-7.673-2.94-10.607-.016-2.933 2.925-2.94 7.673-.016 10.607 6.024 6.042 14.041 9.369 22.575 9.369 8.533 0 16.55-3.328 22.573-9.37 2.925-2.933 2.917-7.682-.017-10.606-2.934-2.925-7.682-2.918-10.606.017-3.189 3.198-7.433 4.959-11.951 4.959z"/><path d="m472.952 492.176-6.689-94.537c-1.611-22.737-11.935-42.323-30.685-58.214-13.219-11.204-30.74-20.744-53.379-29.074l6.835-25.255c2.157-7.982.813-15.931-3.688-21.81-4.328-5.653-11.076-8.766-19.002-8.766h-24.828c12.715-14.061 22.806-30.329 28.646-47.104 20.145-2.029 38.944-14.22 38.944-35.594v-10.8c0-11.058-7.205-20.448-17.125-23.646 14.103-13.388 22.334-33.705 24.527-60.737l.032-.396c.534-6.645.957-11.893-3.967-14.994-4.987-3.143-10.196-.114-13.996 2.096-9.072 5.268-17.122 8.436-25.904 10.107-6.41-21.612-19.688-39.709-38.702-52.634-18.031-12.258-41.076-19.601-64.886-20.68-20.072-.911-39.786 2.705-55.53 10.173-15.475 7.341-26.551 17.935-32.353 30.856-11.195.072-20.578 3.511-27.953 10.259-14.622 13.379-16.805 36.045-16.805 48.365v36.409h-8.941c-13.576 0-24.621 11.134-24.621 24.82v10.8c0 21.373 18.796 33.563 38.94 35.594 5.754 16.382 15.901 32.828 28.755 47.105h-24.905c-7.941 0-14.7 3.116-19.032 8.773-4.499 5.877-5.842 13.823-3.683 21.811l6.853 25.24c-33.239 12.237-56.015 27.451-69.503 46.398-2.402 3.375-1.614 8.057 1.76 10.459 1.319.939 2.838 1.391 4.343 1.391 2.344 0 4.653-1.096 6.116-3.151 11.909-16.729 32.935-30.374 64.178-41.642l46.594 50.461v122.719l-53.852.008v-40.736c0-4.142-3.358-7.5-7.5-7.5s-7.5 3.358-7.5 7.5v40.738l-56.335.008c-2.214 0-4.237-1.957-4.112-3.763l6.689-94.536c.292-4.132-2.82-7.718-6.952-8.011-4.125-.287-7.718 2.82-8.011 6.952l-6.69 94.547c-.348 5.023-.173 10.728 3.764 14.947 3.999 4.286 9.984 4.863 15.312 4.863h63.834c.061 0 .121-.008.182-.009l331.777.009c5.327 0 11.312-.58 15.311-4.877 3.939-4.232 4.099-9.934 3.737-14.942zm-355.07-320.355v-10.8c0-5.323 4.406-9.82 9.621-9.82h8.941v26.771c0 4.544.43 9.111 1.203 13.589-10.846-2.551-19.765-9.25-19.765-19.74zm276.225-10.801v10.8c0 10.488-8.912 17.185-19.753 19.737.781-4.475 1.22-9.042 1.22-13.586v-26.771h8.94c5.201.001 9.593 4.498 9.593 9.82zm-239.542 37.076c-2.071-7.001-3.122-13.772-3.122-20.125v-32.093c12.518-19.225 33.308-33.743 47.646-25.451 12.665 7.33 27.383 13.577 43.747 18.569 3.965 1.208 8.154-1.024 9.362-4.985 1.208-3.962-1.023-8.153-4.985-9.362-15.271-4.659-28.935-10.447-40.612-17.205-17.761-10.272-38.979-1.339-55.158 14.763v-22.416c0-7.932 1.163-27.445 11.931-37.298 5.441-4.979 12.71-6.988 22.225-6.141 3.497.308 6.735-1.84 7.806-5.18 7.345-22.893 38.195-37.703 75-36.05 33.294 1.509 75.175 18.231 89.037 59.889-22.762.603-48.81-5.874-59.278-15.361-3.068-2.781-7.812-2.548-10.594.521-2.781 3.069-2.548 7.812.521 10.594 14.244 12.908 42.293 19.292 66.213 19.292 4.737 0 9.316-.252 13.59-.752.007-.001.014 0 .021-.001.017-.002.033-.004.05-.006.008-.001.016-.001.023-.002.003 0 .005-.001.008-.001 11.877-1.292 22.084-4.421 33.229-10.276-3.166 30.16-14.595 48.931-34.864 57.287-.105.017-.213.028-.317.049-27.49 2.494-58.121 1.09-86.421-3.977-4.072-.726-7.974 1.984-8.704 6.061-.729 4.078 1.983 7.975 6.062 8.705 20.019 3.583 41.165 5.414 61.669 5.414 7.422 0 14.754-.249 21.924-.732v26.146c0 .786-.017 1.58-.05 2.381-.231 5.606-1.271 11.563-3.102 17.75-10.073 34.159-42.023 68.073-75.979 80.642-9.495 3.528-17.582 5.171-25.45 5.171-7.867 0-15.954-1.643-25.468-5.178-8.482-3.127-16.949-7.601-25.163-13.298-23.972-16.635-43.436-42.439-50.797-67.344zm39.647 130.039-7.236 28.005-41.35-44.792-8.19-30.167c-.929-3.435-.522-6.631 1.115-8.77 1.83-2.39 4.883-2.892 7.122-2.892h40.394c2.651 2.233 5.368 4.369 8.146 6.391v52.225zm119.478 168.842-57.697-.008-57.695.008v-86.367c17.292 5.433 37.636 8.382 58.489 8.382 20.198 0 39.988-2.775 56.902-7.89v85.875zm0-101.629c-16.367 5.586-36.339 8.644-56.902 8.644-21.251 0-41.787-3.253-58.489-9.196v-22.517l5.497-21.273 9.567-.301c4.442.012 5.552.75 9.156 9.189l3.288 7.625c1.223 2.836 3.987 4.532 6.891 4.532.991 0 1.999-.198 2.966-.615 3.804-1.64 5.558-6.053 3.917-9.857l-3.278-7.602c-3.294-7.712-7.805-18.274-23.054-18.274-.079 0-.157.001-.236.004l-5.308.167 1.269-4.911c.158-.613.238-1.244.238-1.876v-43.665c5.319 2.909 10.703 5.39 16.108 7.382 11.221 4.168 20.968 6.11 30.674 6.11 9.707 0 19.454-1.941 30.666-6.107 5.475-2.027 10.873-4.523 16.146-7.409v43.689c0 .631.08 1.26.237 1.872l1.223 4.745h-3.796c-15.188 0-19.73 10.551-23.054 18.271l-3.26 7.625c-1.628 3.809.14 8.216 3.948 9.845.962.411 1.961.605 2.944.605 2.913 0 5.683-1.707 6.9-4.554l3.252-7.608c3.661-8.505 4.757-9.185 9.269-9.185h7.662l5.559 21.57zm7.634-53.556c-.06-.313-.139-.619-.236-.917l-3.283-12.737v-52.264c2.778-2.018 5.503-4.133 8.155-6.353h40.384c2.228 0 5.267.5 7.092 2.884 1.639 2.141 2.046 5.34 1.118 8.775l-8.165 30.169-41.369 44.784zm132.582 155.205-56.364-.008v-40.738c0-4.142-3.357-7.5-7.5-7.5s-7.5 3.358-7.5 7.5v40.736l-53.852-.008v-122.721l46.619-50.461c49.455 17.852 73.64 41.729 75.99 74.901l6.69 94.548c.131 1.798-1.882 3.751-4.083 3.751z"/><path d="m295.821 96.482c-33.811-3.994-66.238-23.729-78.466-36.467-2.868-2.988-7.615-3.084-10.604-.217-2.988 2.869-3.085 7.616-.217 10.604 16.08 16.751 52.221 36.805 87.527 40.976.299.035.596.052.89.052 3.748 0 6.988-2.806 7.438-6.621.487-4.113-2.455-7.841-6.568-8.327z"/></g></g></svg>